<?xml version="1.0" standalone="no"?><!DOCTYPE svg PUBLIC "-//W3C//DTD SVG 1.1//EN" "http://www.w3.org/Graphics/SVG/1.1/DTD/svg11.dtd"><svg t="1758258540945" class="icon" viewBox="0 0 1024 1024" version="1.1" xmlns="http://www.w3.org/2000/svg" p-id="11483" xmlns:xlink="http://www.w3.org/1999/xlink" width="256" height="256"><path d="M422.7 241.6c-2.9 2.9-5.7 10-8.6 21.5-37.3 106-55.9 187.6-55.9 244.9 123.2-25.8 217.7-114.6 283.6-266.4 25.8-57.3 63-85.9 111.7-85.9 57.3 5.7 77.3 35.8 60.2 90.2-37.3 88.8-90.2 161.9-159 219.1 91.7 71.6 150.4 169 176.2 292.2 5.7 71.6-17.2 108.9-68.8 111.7-45.8-2.9-71.6-41.5-77.3-116-5.7-63-34.4-147.5-85.9-253.5-71.6 45.8-151.8 70.2-240.6 73-2.9 77.3 10 154.7 38.7 232 8.6 40.1-4.3 61.6-38.7 64.5-45.8 0-80.2-21.5-103.1-64.5-40.1-71.6-60.2-153.3-60.2-244.9 0-94.5 25.8-200.5 77.3-318 28.6-60.2 67.3-90.2 116-90.2 40.1 5.8 51.5 35.9 34.4 90.3z" fill="#e6e6e6" p-id="11484"></path></svg>